<svg xmlns="http://www.w3.org/2000/svg" version="1.1" xmlns:xlink="http://www.w3.org/1999/xlink" xmlns:svgjs="http://svgjs.dev/svgjs" width="1000" height="623" viewBox="0 0 1000 623"><g transform="matrix(1,0,0,1,-0.6060606060606233,0.2522267206477409)"><svg viewBox="0 0 396 247" data-background-color="#ffffff" preserveAspectRatio="xMidYMid meet" height="623" width="1000" xmlns="http://www.w3.org/2000/svg" xmlns:xlink="http://www.w3.org/1999/xlink"><g id="tight-bounds" transform="matrix(1,0,0,1,0.2400000000000091,-0.09999999999999432)"><svg viewBox="0 0 395.52 247.2" height="247.2" width="395.52"><g><svg></svg></g><g><svg viewBox="0 0 395.52 247.2" height="247.2" width="395.52"><g transform="matrix(1,0,0,1,75.54432,56.5752902196908)"><svg viewBox="0 0 244.43135999999998 134.0494195606184" height="134.0494195606184" width="244.43135999999998"><g><svg viewBox="0 0 244.43135999999998 134.0494195606184" height="134.0494195606184" width="244.43135999999998"><g><svg viewBox="0 0 244.43135999999998 134.0494195606184" height="134.0494195606184" width="244.43135999999998"><g><svg viewBox="0 0 244.43135999999998 134.0494195606184" height="134.0494195606184" width="244.43135999999998"><g id="textblocktransform"><svg viewBox="0 0 244.43135999999998 134.0494195606184" height="134.0494195606184" width="244.43135999999998" id="textblock"><g><svg viewBox="0 0 244.43135999999998 134.0494195606184" height="134.0494195606184" width="244.43135999999998"><g transform="matrix(1,0,0,1,0,0)"><svg width="244.43135999999998" viewBox="3.25 -33.70000076293945 61.44999694824219 33.70000076293945" height="134.0494195606184" data-palette-color="#3b82f6"><path d="M20.3-16.85L32.25 0 22.6 0 11.3-16.75 22.2-33.7 31.35-33.7 20.3-16.85ZM10.95-33.7L10.95 0 3.25 0 3.25-33.7 10.95-33.7ZM44.05-13.95L44.05 0 36.35 0 36.35-33.7 44.8-33.7 52.65-19.75Q54.3-16.8 55.52-14.23 56.75-11.65 57.1-10.6L57.1-10.6 57.5-9.5Q57-13.2 57-19.75L57-19.75 57-33.7 64.7-33.7 64.7 0 56.25 0 48.2-13.95Q46.6-16.65 45.37-19.28 44.15-21.9 43.7-23.15L43.7-23.15 43.3-24.4Q44.05-19.9 44.05-13.95L44.05-13.95Z" opacity="1" transform="matrix(1,0,0,1,0,0)" fill="#3b82f6" class="wordmark-text-0" data-fill-palette-color="primary" id="text-0"></path></svg></g></svg></g></svg></g></svg></g></svg></g></svg></g></svg></g><g><path d="M0 123.6c0-68.262 55.338-123.6 123.6-123.6 36.39 0 69.106 15.726 91.725 40.752l-8.325 0c-21.295-21.436-50.798-34.708-83.4-34.708-64.924 0-117.556 52.631-117.556 117.556 0 64.924 52.631 117.556 117.556 117.556 32.603 0 62.105-13.272 83.4-34.708h8.325c-22.619 25.026-55.335 40.752-91.725 40.752-68.262 0-123.6-55.338-123.6-123.6z" fill="#0063db" stroke="transparent" data-fill-palette-color="tertiary"></path></g></svg></g><defs></defs></svg><rect width="395.52" height="247.2" fill="none" stroke="none" visibility="hidden"></rect></g></svg></g></svg>